#!OML:ASF F:\VICON\USERDATA\INSTALL\rory3\rory3.ASF
:FULLY-SPECIFIED
:DEGREES
72
root 0.2121120997003237 17.764611812827553 36.27264321144382 -2.5352332788043195 1.1623421831215266 -1.6413681007376233
lfemur 9.416178991157146 -5.278843856454487 -20.74856491999753
ltibia 40.88776561790654
lfoot 8.300957738777083 -13.87733654017851
ltoes -9.644755374581841
rfemur -24.805357294792582 4.606000341825435 24.955610672418494
rtibia 30.996540631889154
rfoot -4.086125629912815 -3.861692596262474
rtoes 8.126186578670273
lowerback 9.392375114644382 -1.4772646793304527 -0.6904261064206616
upperback 0.4010413943032548 -1.9097675774365528 2.8067226933764777
thorax -4.770354675111028 -0.903086054582813 3.3416587880374236
lowerneck -16.348513413395278 -2.442526285390757 -2.591859170314592
upperneck 20.920693329287744 -2.987712273253158 0.6615548673482045
head 9.292325206990595 -1.501159305310874 0.3478377462926938
lclavicle -2.149990276167973e-15 7.252130776366534e-16
lhumerus -22.030192809579674 -2.8959890377640187 83.80637262084038
lradius 30.38958921179545
lwrist 7.260256156635882
lhand -28.58947649714633 21.900839925629803
lfingers 7.12502
lthumb -1.9551403404922807 51.8586146751063
rclavicle -2.149990276167973e-15 7.252130776366534e-16
rhumerus -34.25744474740061 -28.256843761578395 -73.32502579449435
rradius 19.8993246238481
rwrist 13.683943756112495
rhand -17.495833654004425 22.607266235495754
rfingers 7.12502
rthumb 8.756839341834635 -7.192602277478056
73
root 0.1305783948461557 17.86850183538905 35.7177639943242 -2.936901435222115 0.9052454662492728 -3.233699211973751
lfemur 3.184860651574933 -4.276989604412616 -18.156356439405506
ltibia 50.189081153722874
lfoot 12.745343449220467 -15.849897645889722
ltoes -3.8747440637873423
rfemur -21.79526108176963 4.910188797203535 27.030325969132754
rtibia 30.517809081397466
rfoot -6.413172851112912 -4.624582714439809
rtoes 9.745555590626463
lowerback 9.51466563178375 -1.3247837401609024 0.47236985383824015
upperback 0.43725416985269194 -1.5641871237905538 3.010921248317623
thorax -4.845855977096358 -0.7537233088492747 2.7710329728897216
lowerneck -16.128898614894116 -2.5090925113646216 -2.5473875976325724
upperneck 20.937279805102236 -3.10594950736282 0.760595352758441
head 9.256083079771464 -1.5468945133867704 0.35352151924246483
lclavicle -2.6754918970842503e-15 2.414339148763391e-16
lhumerus -23.610011461488075 -3.0182431897863333 84.24594078836405
lradius 29.505566629854414
lwrist 6.223029630412863
lhand -27.727353044984312 22.492870373166706
lfingers 7.12502
lthumb -1.1225662139236703 52.45482214633658
rclavicle -2.6754918970842503e-15 2.414339148763391e-16
rhumerus -33.818808480295736 -27.304550250501574 -74.2799578212693
rradius 20.108431519255966
rwrist 12.637826037324658
rhand -17.305757878684613 23.12750610745077
rfingers 7.12502
rthumb 8.940268352563924 -6.664686676237071
74
root 0.08183650424822136 17.969528079776197 36.11562982339501 -3.183779890658179 0.6631386375781934 -4.232648816072458
lfemur -2.3308328316454627 -2.8922050016323944 -15.840839778300637
ltibia 58.85567299938266
lfoot 12.501168228007888 -14.889321284785217
ltoes -1.1427771749502038
rfemur -17.90334242962643 5.374286708963993 29.013424986277535
rtibia 30.14234040871895
rfoot -8.459565793572358 -5.251268349286643
rtoes 10.126098079342974
lowerback 9.614388058071105 -0.9644159423801998 1.5795389266238304
upperback 0.5369918012545377 -0.9632349038554433 3.0989256685158555
thorax -4.836914976092953 -0.47921922835946806 2.2891990813684675
lowerneck -15.912354891570937 -2.6021674231165433 -2.5051447398525415
upperneck 20.95080932340379 -3.2667192302139623 1.041752649308994
head 9.239986164989759 -1.6065768539168261 0.40694038231575036
lclavicle -2.2802613954660017e-15 6.056033697556994e-16
lhumerus -24.601824676695387 -2.844442107540063 84.64545275638247
lradius 28.654014668066324
lwrist 4.989907558561872
lhand -27.099288745733798 22.961402659247288
lfingers 7.12502
lthumb -0.5160199145270394 52.928596093757925
rclavicle -2.2802613954660017e-15 6.056033697556994e-16
rhumerus -32.7930357349438 -25.517473566249002 -75.52004223857911
rradius 20.596182263142815
rwrist 11.666758555566343
rhand -17.011883441358187 23.846850250341255
rfingers 7.12502
rthumb 9.223868218955209 -5.935355020202302
75
root 0.04483801268240867 18.040254936037936 35.44093935176557 -3.3622800126925436 0.043964659612688806 -4.954381460510243
lfemur -8.044556423114697 -1.435502120282354 -14.557757541775736
ltibia 64.38484579042509
lfoot 7.863254304725749 -12.28904622401654
ltoes -2.014333588338636
rfemur -14.622333379412648 5.615984031757489 30.284848259030916
rtibia 29.178166364150762
rfoot -10.67677518556302 -5.791517810871754
rtoes 9.417050987668622
lowerback 9.623910499130895 -0.5293049603086059 2.293909250573408
upperback 0.6208645950644746 -0.3133398947991486 2.9945452626719673
thorax -4.808009122438466 -0.17397099751471867 1.690434779618642
lowerneck -15.779831142064724 -2.7047009173453795 -2.4783812129106764
upperneck 20.954288120694034 -3.4385143307689643 1.2793924685079943
head 9.236174137282553 -1.6711969125747497 0.4419255984204624
lclavicle -2.4352571792482043e-15 4.629602820047599e-16
lhumerus -25.793442494604413 -2.4991214188881266 84.84429187825867
lradius 27.64921919518812
lwrist 3.8337719023469994
lhand -27.00289456783247 22.843002693530615
lfingers 7.12502
lthumb -0.4229037509429421 52.81634114287573
rclavicle -2.4352571792482043e-15 4.629602820047599e-16
rhumerus -31.6257672415454 -23.518782819984597 -77.01767386539235
rradius 21.154568007204322
rwrist 10.541377375343382
rhand -16.821666933901383 23.852563914864785
rfingers 7.12502
rthumb 9.407435790144516 -5.919670498417924
76
root 0.04042913272098775 18.08081051091672 35.51541344489786 -3.3881860319568817 -0.6574066298043588 -5.220791069262752
lfemur -12.49876221999237 0.14237273233070313 -13.632385281778614
ltibia 67.84179276463031
lfoot 2.31335834613792 -8.721132019876634
ltoes -3.95971540372525
rfemur -11.046026079377695 5.805386983437471 31.53309435628327
rtibia 29.535091876757445
rfoot -12.243517484711298 -5.591877538016725
rtoes 8.930263930025214
lowerback 9.645388123445246 0.06204169425656325 3.1063803353212593
upperback 0.685332550458885 0.5450589980362106 2.837745983882371
thorax -4.76067752125573 0.2323706272508151 1.159160640220895
lowerneck -15.690082603018922 -2.7694079600840333 -2.3836799558971355
upperneck 20.997900498556543 -3.5475587412258873 1.4296132578783676
head 9.258299280673285 -1.7121450678325432 0.4533124396018444
lclavicle -1.7287680586930798e-15 1.1136449894670554e-15
lhumerus -26.85673822461527 -1.5269345505604546 84.90475534103531
lradius 26.96215370097588
lwrist 3.530202707728912
lhand -27.176084912824642 22.59738023245946
lfingers 7.12502
lthumb -0.59012742841413 52.57540294438825
rclavicle -1.7287680586930798e-15 1.1136449894670554e-15
rhumerus -30.23312897995311 -20.9643738286398 -78.3048313280728
rradius 22.08086045740656
rwrist 9.441809961057034
rhand -16.783271695956397 23.194093619283404
rfingers 7.12502
rthumb 9.44449071157021 -6.57549909553337
77
root 0.04369222006290968 18.07769096511936 34.74359666617429 -3.3152155455545023 -1.5698941739468009 -5.555728925602753
lfemur -16.84627416011414 1.4174092836812138 -13.316603328037932
ltibia 67.76457766761553
lfoot -2.525035963192375 -5.381438036070435
ltoes -5.439233751668256
rfemur -8.369902158066264 5.844883568803775 32.42436966156814
rtibia 29.743259544835542
rfoot -14.006190549384332 -5.383088949365554
rtoes 8.491358980482834
lowerback 9.70632719556554 0.6115447947818123 3.860436013521218
upperback 0.6977873178923092 1.3495069480480426 2.622215344625741
thorax -4.769181090808745 0.6126080307777899 0.4891449287733845
lowerneck -15.717524998365748 -2.8036837808520074 -2.2751619185954133
upperneck 20.963412135418825 -3.606935637795103 1.4301834554386583
head 9.260193166749692 -1.7340929161010363 0.4211529015828239
lclavicle -1.5540971102256841e-15 1.2745227115289796e-15
lhumerus -28.24736340156843 -0.6083436020206656 84.78491602371248
lradius 26.43268885696415
lwrist 3.847962826283493
lhand -27.49341274968919 22.109432675825524
lfingers 7.12502
lthumb -0.8965752593926375 52.08891835352866
rclavicle -1.5540971102256841e-15 1.2745227115289796e-15
rhumerus -28.984642075234042 -18.322866425072554 -79.55154934274844
rradius 23.233023661445277
rwrist 7.830834401522632
rhand -16.995881270705713 22.14295479530742
rfingers 7.12502
rthumb 9.239316004029494 -7.6331638589063875
